<?xml version="1.0" encoding="UTF-8"?>
<!DOCTYPE svg PUBLIC "-//W3C//DTD SVG 1.1//EN" "http://www.w3.org/Graphics/SVG/1.1/DTD/svg11.dtd">
<svg version="1.1" xmlns="http://www.w3.org/2000/svg" xmlns:xlink="http://www.w3.org/1999/xlink" x="0" y="0" width="64" height="64" viewBox="0, 0, 64, 64">
  <g id="Layer_1">
    <path d="M23.83,8.831 C23.83,8.831 44.697,8.857 44.697,8.857 C44.697,8.857 52.199,26.957 52.199,26.957 C40.232,34.919 28.21,42.282 16.284,50.305 C21.211,43.517 26.314,37.54 31.241,30.752 C31.242,30.752 29.069,29.331 29.069,29.331 C24.461,36.154 20.166,42.894 15.559,49.717 C18.316,36.088 21.072,22.46 23.83,8.831 z" fill="#000000"/>
    <path d="M53.887,57.839 C53.887,57.839 19.794,50.305 19.794,50.305 C19.794,50.305 17.37,50.349 17.37,50.349 C17.37,50.349 48.884,59.398 48.884,59.398 C48.884,59.398 54.054,57.926 53.887,57.839 z" fill="#000000"/>
  </g>
</svg>
