<?xml version="1.0" encoding="UTF-8"?>
<!DOCTYPE svg PUBLIC "-//W3C//DTD SVG 1.1//EN" "http://www.w3.org/Graphics/SVG/1.1/DTD/svg11.dtd">
<svg version="1.1" xmlns="http://www.w3.org/2000/svg" xmlns:xlink="http://www.w3.org/1999/xlink" x="0" y="0" width="64" height="64" viewBox="0, 0, 64, 64">
  <g id="Layer_1">
    <path d="M22.566,14.444 C30.077,14.818 35.394,19.575 37.51,26.638 C39.203,34.914 33.903,42.989 25.671,44.674 C17.438,46.358 9.393,41.013 7.7,32.737 C6.007,24.461 11.307,16.386 19.539,14.702 L21.079,14.467 L22.566,14.444 z M22.595,15.428 L21.178,15.463 L19.739,15.682 C12.049,17.255 7.097,24.801 8.68,32.537 C10.262,40.273 17.78,45.267 25.47,43.694 C33.161,42.121 38.113,34.575 36.53,26.839 C35.182,20.818 30.241,16.084 24.009,15.464 L22.595,15.428 z" fill="#000000"/>
    <path d="M34.765,26.407 C42.276,26.781 47.592,31.538 49.709,38.601 C51.402,46.877 46.102,54.952 37.87,56.637 C29.637,58.321 21.592,52.976 19.899,44.7 C18.206,36.424 23.505,28.349 31.738,26.665 L33.278,26.43 L34.765,26.407 z M34.794,27.391 L33.377,27.425 L31.938,27.645 C24.248,29.218 19.296,36.764 20.878,44.5 C22.461,52.236 29.979,57.23 37.669,55.657 C45.359,54.084 50.312,46.538 48.729,38.802 C47.381,32.78 42.44,28.047 36.208,27.427 L34.794,27.391 z" fill="#000000"/>
    <path d="M42.024,7.319 C50.026,7.717 55.693,12.783 57.949,20.31 C59.752,29.125 54.105,37.73 45.33,39.525 C36.556,41.32 27.983,35.625 26.179,26.809 C24.376,17.994 30.023,9.389 38.798,7.594 L40.439,7.344 L42.024,7.319 z M40.736,10.33 L39.399,10.533 C32.251,11.995 27.646,19.012 29.118,26.208 C30.591,33.404 37.581,38.048 44.729,36.586 C51.877,35.124 56.482,28.107 55.01,20.911 C53.086,13.49 48.162,10.334 40.736,10.33 z" fill="#000000"/>
  </g>
</svg>
