<?xml version="1.0" encoding="UTF-8"?>
<!DOCTYPE svg PUBLIC "-//W3C//DTD SVG 1.1//EN" "http://www.w3.org/Graphics/SVG/1.1/DTD/svg11.dtd">
<svg version="1.1" xmlns="http://www.w3.org/2000/svg" xmlns:xlink="http://www.w3.org/1999/xlink" x="0" y="0" width="64" height="64" viewBox="0, 0, 64, 64">
  <g id="Layer_1">
    <path d="M48.757,39.438 L49.243,40.312 C48.478,40.738 48.478,40.738 45.415,42.444 C41.587,44.577 41.587,44.577 36.993,47.136 C32.4,49.695 32.4,49.695 28.571,51.828 C25.509,53.534 25.509,53.534 24.743,53.96 L24.257,53.087 C25.022,52.66 25.022,52.66 28.085,50.954 C31.913,48.822 31.913,48.822 36.507,46.263 C41.1,43.703 41.1,43.703 44.928,41.571 C47.991,39.865 47.991,39.865 48.757,39.438 z" fill="#000000"/>
    <path d="M26.869,13.313 C27.568,13.704 27.568,13.704 30.365,15.267 C33.861,17.22 33.861,17.22 38.056,19.563 C42.252,21.907 42.252,21.907 45.748,23.86 C48.545,25.423 48.545,25.423 49.244,25.813 L48.756,26.686 C48.057,26.296 48.057,26.296 45.26,24.733 C41.764,22.78 41.764,22.78 37.569,20.436 C33.373,18.093 33.373,18.093 29.877,16.14 C27.08,14.577 27.08,14.577 26.381,14.186 L26.869,13.313 z" fill="#000000"/>
    <path d="M14.127,22.831 L15.123,22.919 C15.064,23.579 15.064,23.579 14.83,26.22 C14.537,29.521 14.537,29.521 14.186,33.482 C13.834,37.443 13.834,37.443 13.541,40.743 C13.307,43.384 13.307,43.384 13.248,44.044 L12.252,43.956 C12.311,43.296 12.311,43.296 12.545,40.655 C12.838,37.354 12.838,37.354 13.189,33.393 C13.541,29.432 13.541,29.432 13.834,26.132 C14.068,23.491 14.068,23.491 14.127,22.831 z" fill="#000000"/>
    <path d="M9.126,27.273 L10.123,27.352 C10.03,28.524 10.03,28.524 9.748,32.04 C9.467,35.556 9.467,35.556 9.373,36.727 L8.376,36.648 C8.47,35.476 8.47,35.476 8.751,31.96 C9.033,28.445 9.033,28.445 9.126,27.273 z" fill="#000000"/>
    <path d="M35.376,11.193 C35.759,11.415 35.759,11.415 37.29,12.306 C39.205,13.419 39.205,13.419 41.501,14.755 C43.798,16.091 43.798,16.091 45.712,17.205 C47.244,18.095 47.244,18.095 47.626,18.318 L47.124,19.182 C46.741,18.96 46.741,18.96 45.209,18.069 C43.295,16.956 43.295,16.956 40.999,15.62 C38.702,14.284 38.702,14.284 36.788,13.17 C35.256,12.28 35.256,12.28 34.874,12.057 L35.376,11.193 z" fill="#000000"/>
    <path d="M47.125,46.567 L47.625,47.433 C47.153,47.706 47.153,47.706 45.262,48.8 C43.843,49.621 42.423,50.442 41.003,51.264 C38.957,52.447 36.91,53.632 34.864,54.816 C32.973,55.909 32.973,55.909 32.5,56.183 L32,55.317 C32.472,55.044 32.472,55.044 34.363,53.95 C35.782,53.129 37.202,52.308 38.621,51.486 C40.668,50.302 42.715,49.118 44.761,47.934 C46.652,46.841 46.652,46.841 47.125,46.567 z" fill="#000000"/>
    <path d="M17.524,12.001 L19.64,13.193 C20.691,13.785 20.691,13.785 24.896,16.154 C30.152,19.115 30.152,19.115 36.46,22.669 C42.767,26.222 42.767,26.222 48.023,29.183 C52.228,31.552 52.228,31.552 53.279,32.144 L55.731,33.525 L53.218,34.791 C52.11,35.348 52.11,35.348 47.68,37.58 C42.142,40.368 42.142,40.368 35.496,43.715 C28.851,47.062 28.851,47.062 23.313,49.851 C18.882,52.082 18.882,52.082 17.775,52.64 L15.476,53.797 L15.602,51.227 L17.405,14.427 L17.524,12.001 z M20.283,16.999 L18.724,48.803 C19.804,48.259 20.884,47.715 21.963,47.171 C27.501,44.382 27.501,44.382 34.147,41.036 C40.793,37.689 40.793,37.689 46.331,34.9 C47.339,34.392 48.347,33.885 49.355,33.377 C48.421,32.85 47.486,32.323 46.551,31.797 C41.295,28.836 41.295,28.836 34.987,25.282 C28.68,21.729 28.68,21.729 23.423,18.768 C22.377,18.178 21.33,17.588 20.283,16.999 z" fill="#000000"/>
  </g>
</svg>
