<?xml version="1.0" encoding="UTF-8"?>
<!DOCTYPE svg PUBLIC "-//W3C//DTD SVG 1.1//EN" "http://www.w3.org/Graphics/SVG/1.1/DTD/svg11.dtd">
<svg version="1.1" xmlns="http://www.w3.org/2000/svg" xmlns:xlink="http://www.w3.org/1999/xlink" x="0" y="0" width="64" height="64" viewBox="0, 0, 64, 64">
  <g id="Layer_1">
    <path d="M20.203,7.016 L20.757,7.307 C21.416,7.653 21.416,7.653 24.053,9.037 C27.349,10.767 27.349,10.767 31.304,12.843 C35.259,14.918 35.259,14.918 38.555,16.648 C41.192,18.032 41.192,18.032 41.851,18.378 L41.387,19.263 C40.727,18.917 40.727,18.917 38.091,17.534 C34.795,15.804 34.795,15.804 30.84,13.728 C26.884,11.652 26.884,11.652 23.588,9.923 C22.675,9.442 21.761,8.964 20.847,8.484 C20.418,10.097 19.988,11.711 19.559,13.325 C18.598,16.935 17.637,20.545 16.677,24.156 C15.512,28.534 14.347,32.912 13.182,37.29 C12.023,41.647 12.023,41.647 11.733,42.736 L10.766,42.479 C11.056,41.39 11.056,41.39 12.216,37.032 C13.665,31.586 13.665,31.586 15.404,25.05 C17.143,18.514 17.143,18.514 18.592,13.068 C19.752,8.711 19.752,8.711 20.042,7.621 L20.203,7.016 z" fill="#000000"/>
    <path d="M33.678,37.71 L33.863,37.906 C34.332,38.403 34.332,38.403 36.207,40.387 C38.551,42.868 38.551,42.868 41.364,45.844 C44.177,48.821 44.177,48.821 46.521,51.301 C48.396,53.285 48.396,53.285 48.865,53.781 L48.138,54.468 C47.669,53.972 47.669,53.972 45.794,51.988 C43.45,49.507 43.45,49.507 40.637,46.531 C37.824,43.554 37.824,43.554 35.48,41.074 C34.761,40.312 34.041,39.551 33.322,38.789 C32.31,38.969 31.298,39.149 30.287,39.328 C26.986,39.914 26.986,39.914 23.025,40.617 C19.064,41.32 19.064,41.32 15.763,41.906 C13.123,42.375 13.123,42.375 12.462,42.492 L12.288,41.507 C12.948,41.391 12.948,41.391 15.588,40.922 C18.889,40.336 18.889,40.336 22.85,39.633 C26.811,38.93 26.811,38.93 30.112,38.344 C32.752,37.875 32.752,37.875 33.413,37.758 L33.678,37.71 z" fill="#000000"/>
    <path d="M41.158,18.628 L42.08,19.013 C41.827,19.621 41.827,19.621 40.812,22.049 C39.543,25.085 39.543,25.085 38.021,28.728 C36.499,32.371 36.499,32.371 35.23,35.407 C34.215,37.836 34.215,37.836 33.961,38.443 L33.039,38.057 C33.292,37.45 33.292,37.45 34.307,35.021 C35.069,33.198 35.831,31.374 36.593,29.551 C37.692,26.922 38.79,24.293 39.889,21.664 C40.904,19.235 40.904,19.235 41.158,18.628 z" fill="#000000"/>
    <path d="M43.836,16.161 L44.23,18.579 L49.982,53.884 L50.368,56.256 L48.068,55.561 L9.941,44.043 L7.068,43.176 L9.487,41.399 C10.499,40.655 10.499,40.655 14.545,37.682 C17.898,35.218 21.251,32.755 24.604,30.291 C28.671,27.304 32.737,24.316 36.803,21.328 C40.85,18.355 40.85,18.355 41.862,17.612 L43.836,16.161 z M41.663,21.48 C40.636,22.236 39.607,22.991 38.579,23.746 C33.521,27.463 33.521,27.463 27.451,31.923 C21.38,36.383 21.38,36.383 16.322,40.1 C15.442,40.746 14.562,41.393 13.681,42.039 L46.634,51.994 L41.663,21.48 z" fill="#000000"/>
  </g>
</svg>
