<?xml version="1.0" encoding="UTF-8"?>
<!DOCTYPE svg PUBLIC "-//W3C//DTD SVG 1.1//EN" "http://www.w3.org/Graphics/SVG/1.1/DTD/svg11.dtd">
<svg version="1.1" xmlns="http://www.w3.org/2000/svg" xmlns:xlink="http://www.w3.org/1999/xlink" x="0" y="0" width="64" height="64" viewBox="0, 0, 64, 64">
  <g id="Layer_1">
    <path d="M16.581,8.503 L19.412,10.53 L55.459,36.347 L57.887,38.085 L55.043,38.995 L37.915,44.471 C37.352,45.055 36.789,45.64 36.226,46.224 C34.275,48.25 34.275,48.25 31.932,50.682 C29.59,53.113 29.59,53.113 27.638,55.139 C26.077,56.76 26.077,56.76 25.687,57.166 L23.539,59.395 L23.12,56.328 L17.053,11.953 L16.581,8.503 z M20.497,14.997 L25.673,52.855 C27.039,51.437 28.406,50.019 29.772,48.601 C32.114,46.169 32.114,46.169 34.066,44.143 C35.627,42.522 35.627,42.522 36.018,42.117 L36.28,41.844 L36.641,41.729 L51.285,37.047 L20.497,14.997 z" fill="#000000"/>
  </g>
</svg>
