<?xml version="1.0" encoding="UTF-8"?>
<!DOCTYPE svg PUBLIC "-//W3C//DTD SVG 1.1//EN" "http://www.w3.org/Graphics/SVG/1.1/DTD/svg11.dtd">
<svg version="1.1" xmlns="http://www.w3.org/2000/svg" xmlns:xlink="http://www.w3.org/1999/xlink" x="0" y="0" width="64" height="64" viewBox="0, 0, 64, 64">
  <g id="Layer_1">
    <path d="M47.409,16.941 L47.784,19.601 L52.585,53.691 L52.908,55.981 L50.685,55.342 L16.595,45.531 L13.868,44.747 L16.053,42.935 L45.341,18.655 L47.409,16.941 z M45.188,22.679 L20.153,43.433 L49.292,51.819 L45.188,22.679 z" fill="#000000"/>
    <path d="M40.75,11.752 L40.875,12.638 L45.677,46.728 L45.784,47.492 L45.043,47.278 L10.954,37.468 L10.044,37.207 L10.773,36.603 L40.061,12.323 L40.75,11.752 z M40.01,13.664 L12.139,36.769 L44.579,46.104 L40.01,13.664 z" fill="#000000"/>
    <path d="M36.253,6.544 L36.377,7.43 L41.179,41.52 L41.286,42.283 L40.545,42.07 L6.456,32.26 L5.546,31.999 L6.275,31.395 L35.563,7.115 L36.253,6.544 z M35.512,8.456 L7.641,31.561 L40.081,40.896 L35.512,8.456 z" fill="#000000"/>
  </g>
</svg>
